Coordinates
version=1
nRows=22
nColumns=24
inDegrees=yes

Units are S.I. units (second, meters, Newtons, ...)
Angles are in degrees.

endheader
time	pelvis_tilt	pelvis_list	pelvis_rotation	pelvis_tx	pelvis_ty	pelvis_tz	hip_flexion_r	hip_adduction_r	hip_rotation_r	knee_angle_r	ankle_angle_r	subtalar_angle_r	mtp_angle_r	hip_flexion_l	hip_adduction_l	hip_rotation_l	knee_angle_l	ankle_angle_l	subtalar_angle_l	mtp_angle_l	lumbar_extension	lumbar_bending	lumbar_rotation
      5.86500000	     37.42656907	      2.75407832	      2.51900793	      1.43163393	      0.67936015	     -0.25101012	    -36.71957411	      2.06914229	     -7.90405263	     -7.26642496	     17.76472506	      8.22999669	      0.00000000	    -20.29379333	     -1.26859835	     -6.73811910	    -64.96545251	      8.46580377	     -3.01466469	      0.00000000	    -60.85104097	      3.38432546	     -3.51310125
      5.87000000	     37.30978418	      2.86940058	      2.25024199	      1.43651447	      0.67951802	     -0.25091367	    -37.31064331	      1.85280446	     -8.01480174	     -6.76777838	     17.92111608	      8.45376203	      0.00000000	    -19.39833477	     -0.89064675	     -6.95279979	    -64.34924005	      9.00280603	     -2.50269524	      0.00000000	    -60.85318665	      3.10371852	     -3.40572944
      5.87500000	     37.20406059	      2.96290648	      1.99730881	      1.44138355	      0.67958293	     -0.25085951	    -37.89577048	      1.66007580	     -8.11603549	     -6.30051487	     18.11792297	      8.70467526	      0.00000000	    -18.53592954	     -0.54938884	     -7.16738091	    -63.65762648	      9.51734656	     -1.98351763	      0.00000000	    -60.86401448	      2.85752460	     -3.29068801
      5.88000000	     37.10589132	      3.03970544	      1.75329090	      1.44623964	      0.67956583	     -0.25082613	    -38.46850560	      1.48536292	     -8.22529544	     -5.86843501	     18.33905730	      8.95699211	      0.00000000	    -17.70548582	     -0.23816101	     -7.38505515	    -62.88682005	      9.99192184	     -1.46964608	      0.00000000	    -60.88892575	      2.63643101	     -3.16615314
      5.88500000	     37.03911833	      3.08622652	      1.49655761	      1.45109525	      0.67948349	     -0.25082595	    -39.05367189	      1.32156557	     -8.34023797	     -5.47538443	     18.61395234	      9.25895240	      0.00000000	    -16.94706343	      0.03949085	     -7.62307193	    -62.01844067	     10.42850393	     -0.95460501	      0.00000000	    -60.93873749	      2.44527502	     -3.03431946
      5.89000000	     36.93661933	      3.14223298	      1.31619072	      1.45586937	      0.67929231	     -0.25085766	    -39.57063439	      1.20194832	     -8.46152080	     -5.13059114	     18.80434967	      9.39162769	      0.00000000	    -16.14109101	      0.30426162	     -7.77506952	    -61.10559284	     10.84760636	     -0.56792532	      0.00000000	    -60.98692716	      2.26987926	     -2.87215654
      5.89500000	     36.85017983	      3.16542228	      1.11252896	      1.46067756	      0.67902552	     -0.25087935	    -40.09394284	      1.09079019	     -8.57286166	     -4.80729755	     19.09951164	      9.61143082	      0.00000000	    -15.39478338	      0.52228639	     -7.96647317	    -60.10278946	     11.22340426	     -0.09941695	      0.00000000	    -61.03688054	      2.11450131	     -2.74256551
      5.90000000	     36.83182678	      3.15798154	      0.87566587	      1.46547175	      0.67873101	     -0.25083721	    -40.66923055	      0.98419253	     -8.66088498	     -4.52456649	     19.45384048	      9.94939098	      0.00000000	    -14.76920912	      0.68873681	     -8.21955790	    -58.99411789	     11.50311672	      0.37015293	      0.00000000	    -61.15297729	      1.94783948	     -2.60704081
      5.90500000	     36.79717331	      3.15510916	      0.69414392	      1.47025036	      0.67835206	     -0.25087369	    -41.21176965	      0.90655257	     -8.74361296	     -4.27552125	     19.76300994	     10.12945058	      0.00000000	    -14.14565120	      0.85458831	     -8.40162421	    -57.81204470	     11.78275427	      0.73089203	      0.00000000	    -61.26116083	      1.82149140	     -2.45053951
      5.91000000	     36.74781405	      3.13942410	      0.56180871	      1.47499179	      0.67789868	     -0.25093323	    -41.70743187	      0.86952713	     -8.82621688	     -4.08790945	     20.06862555	     10.25714357	      0.00000000	    -13.52746528	      0.98582376	     -8.53865318	    -56.55425258	     12.02984916	      1.06226689	      0.00000000	    -61.36380796	      1.72654867	     -2.29916477
      5.91500000	     36.72574601	      3.09750251	      0.41262380	      1.47973645	      0.67738519	     -0.25098316	    -42.23261613	      0.84152211	     -8.87052632	     -3.89586356	     20.41982705	     10.41972342	      0.00000000	    -12.97473447	      1.08019894	     -8.70886507	    -55.22121130	     12.21850460	      1.38480450	      0.00000000	    -61.50056576	      1.64727205	     -2.16111996
      5.92000000	     36.69114480	      3.05384052	      0.31154926	      1.48446232	      0.67680442	     -0.25106537	    -42.72640920	      0.84584023	     -8.91417984	     -3.74404665	     20.75550173	     10.50008593	      0.00000000	    -12.43653985	      1.15893086	     -8.82791190	    -53.80573353	     12.38491094	      1.66718999	      0.00000000	    -61.63626145	      1.59786409	     -2.01918668
      5.92500000	     36.69223881	      2.98507808	      0.20899616	      1.48921339	      0.67618811	     -0.25111714	    -43.25212246	      0.87078003	     -8.91459576	     -3.61319115	     21.11137845	     10.58703303	      0.00000000	    -11.98517254	      1.19792725	     -8.96031837	    -52.29722666	     12.49702824	      1.93484865	      0.00000000	    -61.78621142	      1.55405543	     -1.88804152
      5.93000000	     36.60934665	      2.89386062	      0.27124542	      1.49387251	      0.67542437	     -0.25135841	    -43.66613594	      1.01936511	     -8.94641418	     -3.52114548	     21.43778666	     10.52352383	      0.00000000	    -11.41467207	      1.19076651	     -8.92639661	    -50.78788311	     12.59842056	      2.07824490	      0.00000000	    -61.88773062	      1.66406834	     -1.75649995
      5.93500000	     36.70240240	      2.82028592	      0.09664039	      1.49863570	      0.67480012	     -0.25131295	    -44.27192545	      0.99804657	     -8.88906072	     -3.43268570	     21.80493049	     10.62282008	      0.00000000	    -11.19215619	      1.22021275	     -9.15194359	    -49.02840027	     12.63080966	      2.40972178	      0.00000000	    -62.13896370	      1.54890814	     -1.61793211
      5.94000000	     36.60039991	      2.73644911	      0.17592865	      1.50336590	      0.67396781	     -0.25144980	    -44.65968898	      1.16321335	     -8.91922229	     -3.36946272	     22.11933732	     10.52023858	      0.00000000	    -10.70082053	      1.18088069	     -9.14150050	    -47.32178718	     12.60782485	      2.68582735	      0.00000000	    -62.20871471	      1.62940150	     -1.55514331
      5.94500000	     36.53585140	      2.64218079	      0.23348825	      1.50811711	      0.67311906	     -0.25155826	    -45.08874995	      1.32252706	     -8.91382995	     -3.30880179	     22.45531032	     10.44559893	      0.00000000	    -10.31369630	      1.12989677	     -9.17010632	    -45.50215634	     12.56373218	      3.00233563	      0.00000000	    -62.30879346	      1.69722820	     -1.49590232
      5.95000000	     36.53020650	      2.54198370	      0.26049912	      1.51290011	      0.67228744	     -0.25166708	    -45.58255101	      1.46023767	     -8.83308742	     -3.25738493	     22.76674977	     10.37340965	      0.00000000	    -10.06232421	      1.08637207	     -9.22296752	    -43.55756157	     12.47355909	      3.34565368	      0.00000000	    -62.46033355	      1.74968618	     -1.43788847
      5.95500000	     36.44626720	      2.43769654	      0.38918993	      1.51768895	      0.67134926	     -0.25181795	    -45.99173884	      1.68038393	     -8.84384565	     -3.21038351	     23.08994287	     10.24229047	      0.00000000	     -9.73816153	      1.00996874	     -9.21267401	    -41.57822375	     12.33030578	      3.68483323	      0.00000000	    -62.53387028	      1.85987087	     -1.35458688
      5.96000000	     36.36199684	      2.33178215	      0.53079122	      1.52248324	      0.67039244	     -0.25197455	    -46.39319001	      1.90851862	     -8.82858679	     -3.18266651	     23.39299149	     10.11433897	      0.00000000	     -9.46534144	      0.92949224	     -9.20650566	    -39.50521004	     12.13694619	      4.09811791	      0.00000000	    -62.61081793	      1.98044587	     -1.30978953
      5.96500000	     36.26925027	      2.21740069	      0.68577482	      1.52732255	      0.66940972	     -0.25214284	    -46.78447451	      2.15271788	     -8.82057971	     -3.16661316	     23.67977589	      9.97991848	      0.00000000	     -9.23722834	      0.84346190	     -9.19276284	    -37.35121208	     11.88314605	      4.56019387	      0.00000000	    -62.66754420	      2.11281169	     -1.26894417
      5.97000000	     36.22652550	      2.12536270	      0.79742815	      1.53223725	      0.66844613	     -0.25229087	    -47.22943744	      2.34369504	     -8.74143634	     -3.17298152	     23.94846432	      9.85056029	      0.00000000	     -9.15671811	      0.79669272	     -9.23594686	    -35.06382966	     11.64962422	      5.12672702	      0.00000000	    -62.75939570	      2.19393882	     -1.25201451
